<svg width="40" height="42" viewBox="0 0 40 42" fill="none" xmlns="http://www.w3.org/2000/svg">
<g clip-path="url(#clip0_40_360)">
<path d="M21.0994 13.5549H20C19.7084 13.5549 19.4287 13.4362 19.2226 13.2248C19.0164 13.0135 18.9005 12.7269 18.9005 12.428C18.9005 12.2785 18.8426 12.1352 18.7395 12.0296C18.6364 11.9239 18.4966 11.8645 18.3508 11.8645C18.205 11.8645 18.0652 11.9239 17.9621 12.0296C17.859 12.1352 17.8011 12.2785 17.8011 12.428C17.8011 13.0257 18.0328 13.599 18.4451 14.0217C18.8575 14.4444 19.4168 14.6818 20 14.6818V15.2453C20 15.3947 20.0579 15.538 20.161 15.6437C20.2641 15.7494 20.4039 15.8087 20.5497 15.8087C20.6955 15.8087 20.8353 15.7494 20.9384 15.6437C21.0415 15.538 21.0994 15.3947 21.0994 15.2453V14.6818C21.6826 14.6818 22.2419 14.4444 22.6543 14.0217C23.0666 13.599 23.2983 13.0257 23.2983 12.428C23.2983 11.8302 23.0666 11.257 22.6543 10.8343C22.2419 10.4116 21.6826 10.1741 21.0994 10.1741H20C19.7084 10.1741 19.4287 10.0554 19.2226 9.84407C19.0164 9.63273 18.9005 9.34609 18.9005 9.04721C18.9005 8.74834 19.0164 8.4617 19.2226 8.25036C19.4287 8.03902 19.7084 7.92029 20 7.92029H21.0994C21.391 7.92029 21.6707 8.03902 21.8768 8.25036C22.083 8.4617 22.1989 8.74834 22.1989 9.04721C22.1989 9.19665 22.2568 9.33997 22.3599 9.44564C22.463 9.55131 22.6028 9.61068 22.7486 9.61068C22.8944 9.61068 23.0342 9.55131 23.1373 9.44564C23.2404 9.33997 23.2983 9.19665 23.2983 9.04721C23.2983 8.44946 23.0666 7.87618 22.6543 7.4535C22.2419 7.03083 21.6826 6.79337 21.0994 6.79337V6.22991C21.0994 6.08047 21.0415 5.93715 20.9384 5.83148C20.8353 5.72581 20.6955 5.66645 20.5497 5.66645C20.4039 5.66645 20.2641 5.72581 20.161 5.83148C20.0579 5.93715 20 6.08047 20 6.22991V6.79337C19.4168 6.79337 18.8575 7.03083 18.4451 7.4535C18.0328 7.87618 17.8011 8.44946 17.8011 9.04721C17.8011 9.64497 18.0328 10.2182 18.4451 10.6409C18.8575 11.0636 19.4168 11.3011 20 11.3011H21.0994C21.391 11.3011 21.6707 11.4198 21.8768 11.6311C22.083 11.8425 22.1989 12.1291 22.1989 12.428C22.1989 12.7269 22.083 13.0135 21.8768 13.2248C21.6707 13.4362 21.391 13.5549 21.0994 13.5549ZM20.5497 18.0626C21.9631 18.0626 23.3448 17.633 24.52 16.8281C25.6952 16.0232 26.6112 14.8792 27.1521 13.5408C27.6929 12.2023 27.8345 10.7295 27.5587 9.30856C27.283 7.88765 26.6024 6.58246 25.6029 5.55804C24.6035 4.53362 23.3301 3.83599 21.9439 3.55335C20.5576 3.27071 19.1207 3.41577 17.8149 3.97018C16.5091 4.52459 15.393 5.46346 14.6077 6.66805C13.8225 7.87264 13.4034 9.28885 13.4034 10.7376C13.4057 12.6796 14.1594 14.5413 15.499 15.9145C16.8387 17.2877 18.6551 18.0602 20.5497 18.0626ZM20.5497 4.53952C21.7457 4.53952 22.9148 4.90303 23.9092 5.58409C24.9036 6.26514 25.6786 7.23315 26.1363 8.3657C26.594 9.49825 26.7137 10.7445 26.4804 11.9468C26.2471 13.1491 25.6712 14.2535 24.8255 15.1203C23.9798 15.9871 22.9024 16.5774 21.7294 16.8166C20.5564 17.0557 19.3406 16.933 18.2357 16.4639C17.1307 15.9948 16.1863 15.2003 15.5219 14.1811C14.8574 13.1618 14.5028 11.9635 14.5028 10.7376C14.5045 9.09432 15.1422 7.51885 16.2758 6.35687C17.4095 5.1949 18.9465 4.54131 20.5497 4.53952ZM37.0413 20.0911H32.6435C32.2715 20.0919 31.9107 20.2216 31.6197 20.4591C31.3287 20.6966 31.1246 21.028 31.0405 21.3994L24.8584 19.4543C24.0614 19.2052 23.2073 19.2266 22.4231 19.5152L21.5029 19.8533L17.1898 18.883C16.2788 18.6776 15.3296 18.7409 14.4522 19.0656L8.87698 21.1256C8.75102 20.8189 8.53954 20.5571 8.26906 20.3731C7.99857 20.189 7.68111 20.0909 7.35646 20.0911H2.95871C2.81292 20.0911 2.6731 20.1504 2.57001 20.2561C2.46691 20.3618 2.409 20.5051 2.409 20.6545V31.9237C2.409 32.0732 2.46691 32.2165 2.57001 32.3222C2.6731 32.4278 2.81292 32.4872 2.95871 32.4872H7.35646C7.62786 32.4869 7.89499 32.4179 8.13415 32.2864C8.37331 32.1549 8.5771 31.9649 8.72746 31.7333C10.761 34.3761 13.3444 36.5202 16.2894 38.0091L18.662 39.2059C19.0225 39.3895 19.4238 39.4725 19.8255 39.4466C20.2272 39.4206 20.6152 39.2867 20.9504 39.0582C21.2855 38.8297 21.556 38.5147 21.7347 38.145C21.9133 37.7753 21.9938 37.3638 21.968 36.9521C22.1169 36.9915 22.2695 37.0145 22.4231 37.0208C22.5738 37.0206 22.7241 37.0047 22.8717 36.9735C23.3531 36.8732 23.7873 36.6094 24.1042 36.2247C24.421 35.84 24.6019 35.357 24.6176 34.8537C24.9302 35.034 25.2815 35.1319 25.6401 35.1389C25.7904 35.1386 25.9404 35.1228 26.0876 35.0915C26.6001 34.9848 27.0582 34.6933 27.3788 34.2698C27.6994 33.8463 27.8611 33.3189 27.8346 32.7836C28.2602 32.8922 28.7085 32.8583 29.1139 32.6867C29.5193 32.5151 29.8605 32.215 30.0873 31.8302C30.2525 31.5746 30.3647 31.2869 30.4171 30.985H31.013C31.058 31.3967 31.2489 31.7771 31.5495 32.054C31.8501 32.3309 32.2394 32.4851 32.6435 32.4872H37.0413C37.187 32.4872 37.3269 32.4278 37.43 32.3222C37.5331 32.2165 37.591 32.0732 37.591 31.9237V20.6545C37.591 20.5051 37.5331 20.3618 37.43 20.2561C37.3269 20.1504 37.187 20.0911 37.0413 20.0911ZM7.90618 30.7968C7.90618 30.9463 7.84826 31.0896 7.74517 31.1952C7.64208 31.3009 7.50226 31.3603 7.35646 31.3603H3.50843V21.218H7.35646C7.50226 21.218 7.64208 21.2773 7.74517 21.383C7.84826 21.4887 7.90618 21.632 7.90618 21.7814V30.7968ZM29.1704 31.2149C29.091 31.3386 28.9887 31.445 28.8693 31.5281C28.7498 31.6112 28.6155 31.6694 28.4741 31.6993C28.3327 31.7292 28.187 31.7303 28.0452 31.7025C27.9034 31.6747 27.7683 31.6185 27.6477 31.5372L22.543 28.0922L22.3077 28.4585C22.2717 28.4833 22.2408 28.5152 22.2168 28.5524C22.1929 28.5895 22.1763 28.6311 22.1681 28.6748L21.9383 29.0332L22.3594 29.3172C22.3649 29.3172 22.3682 29.3273 22.3737 29.3318L26.2492 31.9485C26.4874 32.1152 26.6521 32.3712 26.7079 32.6613C26.7637 32.9513 26.7061 33.2522 26.5474 33.4991C26.3888 33.746 26.1418 33.9191 25.8598 33.9811C25.5778 34.0431 25.2833 33.989 25.0398 33.8305L23.6523 32.894L23.6369 32.8816L20.2638 30.6052H20.2551L19.9351 30.3889C19.8134 30.3096 19.6661 30.2826 19.5251 30.3136C19.3841 30.3446 19.2606 30.4311 19.1813 30.5546C19.102 30.678 19.0732 30.8285 19.101 30.9735C19.1289 31.1185 19.2113 31.2465 19.3304 31.3299L23.0388 33.8328C23.2173 33.9568 23.3563 34.1319 23.4384 34.3363C23.5206 34.5407 23.5422 34.7653 23.5008 34.9823C23.4593 35.1992 23.3565 35.3988 23.2051 35.5563C23.0538 35.7138 22.8606 35.8222 22.6496 35.868C22.3641 35.9278 22.0672 35.869 21.8239 35.7046L18.1013 33.1915C18.041 33.1494 17.9732 33.1199 17.9017 33.1049C17.8302 33.0899 17.7565 33.0896 17.685 33.1041C17.6134 33.1185 17.5453 33.1475 17.4848 33.1891C17.4242 33.2308 17.3724 33.2845 17.3322 33.3469C17.2921 33.4094 17.2645 33.4794 17.251 33.5529C17.2376 33.6264 17.2385 33.7019 17.2538 33.775C17.2691 33.8481 17.2984 33.9174 17.3401 33.9788C17.3818 34.0402 17.435 34.0924 17.4966 34.1325L17.6901 34.2632C17.6956 34.2632 17.6989 34.2745 17.7055 34.279L20.3441 36.0584C20.6138 36.2242 20.8093 36.4917 20.889 36.8035C20.9686 37.1153 20.9259 37.4466 20.7701 37.7266C20.6143 38.0065 20.3577 38.2128 20.0553 38.3012C19.7529 38.3896 19.4288 38.3531 19.1523 38.1996L16.7742 36.9949C13.6813 35.4306 11.0129 33.1081 9.00562 30.2334V22.275L14.8238 20.1271C15.5065 19.8754 16.2447 19.8262 16.9534 19.9851L19.5624 20.5723L17.6758 21.2698C17.0962 21.4732 16.6193 21.9042 16.3498 22.4681C16.0803 23.0319 16.0404 23.6824 16.2388 24.2764C16.4372 24.8705 16.8578 25.3594 17.4079 25.6356C17.958 25.9118 18.5926 25.9527 19.1721 25.7493L21.7855 24.8805L28.857 29.653C28.9879 29.7415 29.0987 29.8577 29.1822 29.9938C29.2656 30.1298 29.3197 30.2826 29.3408 30.4418C29.3417 30.4694 29.3443 30.4969 29.3485 30.5241C29.364 30.7678 29.3015 31.0111 29.1704 31.2149ZM30.9943 29.8615H30.3347C30.1778 29.3894 29.8712 28.9848 29.4639 28.712L22.1725 23.7896C22.1037 23.7432 22.0255 23.7132 21.9439 23.7019C21.8623 23.6906 21.7792 23.6982 21.7008 23.7243L18.8357 24.6776C18.6132 24.7519 18.3746 24.7583 18.1486 24.6963C17.9226 24.6343 17.719 24.5065 17.5625 24.3283C17.4293 24.1773 17.3344 23.9949 17.2863 23.7974C17.2381 23.5999 17.2382 23.3932 17.2864 23.1957C17.3347 22.9982 17.4296 22.816 17.5629 22.665C17.6962 22.5141 17.8637 22.3991 18.0507 22.3303L22.7991 20.5745C23.3592 20.3682 23.9694 20.3532 24.5385 20.5317L30.9943 22.5647V29.8615ZM36.4915 31.3603H32.6435C32.4977 31.3603 32.3579 31.3009 32.2548 31.1952C32.1517 31.0896 32.0938 30.9463 32.0938 30.7968V21.7814C32.0938 21.632 32.1517 21.4887 32.2548 21.383C32.3579 21.2773 32.4977 21.218 32.6435 21.218H36.4915V31.3603Z" fill="white"/>
</g>
<defs>
<clipPath id="clip0_40_360">
<rect width="35.182" height="36.0615" fill="white" transform="translate(2.409 3.4126)"/>
</clipPath>
</defs>
</svg>
