<svg width="45" height="46" viewBox="0 0 45 46" fill="none" xmlns="http://www.w3.org/2000/svg">
<path d="M40.9935 20.9424L38.7072 20.3009C38.5613 19.5377 38.3609 18.7859 38.1076 18.0514L39.7589 16.3588C39.8483 16.2678 39.9082 16.1521 39.9308 16.0266C39.9535 15.901 39.9378 15.7716 39.8859 15.6551C39.3523 14.4646 38.6979 13.332 37.933 12.2751C37.8582 12.172 37.7542 12.0937 37.6343 12.0504C37.5145 12.0071 37.3844 12.0009 37.261 12.0325L34.9702 12.6194C34.4608 12.0331 33.9109 11.4832 33.3247 10.9738L33.9115 8.683C33.9433 8.55949 33.9371 8.42928 33.8938 8.30933C33.8506 8.18937 33.7722 8.08521 33.6689 8.01042C32.6121 7.24478 31.4795 6.58973 30.2889 6.05558C30.1724 6.00365 30.043 5.98799 29.9175 6.01065C29.792 6.0333 29.6762 6.09322 29.5852 6.1826L27.8927 7.83386C27.1578 7.58063 26.4059 7.38027 25.6425 7.23433L25.001 4.94796C24.9666 4.8252 24.8961 4.71562 24.7986 4.6335C24.701 4.55138 24.581 4.50051 24.4542 4.48752C23.1547 4.35605 21.8453 4.35605 20.5458 4.48752C20.419 4.50051 20.299 4.55138 20.2015 4.6335C20.1039 4.71562 20.0334 4.8252 19.999 4.94796L19.3575 7.23433C18.5943 7.3802 17.8426 7.58055 17.108 7.83386L15.4155 6.1826C15.3245 6.09322 15.2087 6.0333 15.0832 6.01065C14.9577 5.98799 14.8282 6.00365 14.7118 6.05558C13.5211 6.58973 12.3885 7.24478 11.3317 8.01042C11.2286 8.08517 11.1503 8.18922 11.107 8.30905C11.0637 8.42887 11.0575 8.55895 11.0891 8.68236L11.676 10.9732C11.0897 11.4826 10.5398 12.0325 10.0304 12.6187L7.73961 12.0319C7.61622 11.9996 7.48594 12.0056 7.36598 12.0489C7.24602 12.0922 7.14201 12.1709 7.06768 12.2745C6.30203 13.3312 5.64698 14.4639 5.11284 15.6545C5.0609 15.771 5.04525 15.9004 5.0679 16.0259C5.09056 16.1514 5.15047 16.2672 5.23986 16.3582L6.89112 18.0507C6.63789 18.7855 6.43753 19.5375 6.29158 20.3009L4.00522 20.9424C3.88245 20.9768 3.77288 21.0473 3.69075 21.1448C3.60863 21.2424 3.55776 21.3623 3.54477 21.4892C3.41267 22.7884 3.41267 24.0977 3.54477 25.397C3.55764 25.5239 3.60846 25.644 3.69059 25.7417C3.77272 25.8393 3.88236 25.91 4.00522 25.9444L6.29158 26.5852C6.43745 27.3486 6.63781 28.1006 6.89112 28.8354L5.23986 30.5279C5.15047 30.6189 5.09056 30.7347 5.0679 30.8602C5.04525 30.9857 5.0609 31.1151 5.11284 31.2316C5.64678 32.4222 6.30162 33.5549 7.06704 34.6116C7.14179 34.7148 7.24584 34.7931 7.36567 34.8364C7.48549 34.8796 7.61557 34.8859 7.73898 34.8542L10.0298 34.2674C10.5392 34.8537 11.0891 35.4035 11.6753 35.913L11.0885 38.2038C11.0569 38.3272 11.0631 38.4573 11.1064 38.5771C11.1496 38.6969 11.2279 38.801 11.3311 38.8757C12.3879 39.6414 13.5205 40.2964 14.7111 40.8306C14.8276 40.8825 14.957 40.8981 15.0825 40.8755C15.2081 40.8528 15.3238 40.7929 15.4148 40.7035L17.1074 39.0523C17.8422 39.3055 18.5941 39.5059 19.3575 39.6518L19.999 41.9382C20.0334 42.0609 20.1039 42.1705 20.2015 42.2526C20.299 42.3348 20.419 42.3856 20.5458 42.3986C21.845 42.5307 23.1543 42.5307 24.4536 42.3986C24.5805 42.3857 24.7006 42.3349 24.7983 42.2528C24.8959 42.1707 24.9666 42.061 25.001 41.9382L25.6418 39.6518C26.4052 39.5055 27.1572 39.3049 27.892 39.0516L29.5846 40.7029C29.6755 40.7923 29.7913 40.8522 29.9168 40.8749C30.0423 40.8975 30.1718 40.8819 30.2883 40.8299C31.4788 40.2961 32.6114 39.6415 33.6683 38.8763C33.7714 38.8016 33.8497 38.6976 33.893 38.5777C33.9363 38.4579 33.9425 38.3278 33.9109 38.2044L33.324 35.9136C33.9103 35.4042 34.4602 34.8543 34.9696 34.2681L37.2604 34.8549C37.3838 34.8865 37.5139 34.8803 37.6337 34.837C37.7535 34.7937 37.8576 34.7154 37.9323 34.6123C38.698 33.5555 39.353 32.4229 39.8872 31.2323C39.9391 31.1158 39.9548 30.9864 39.9321 30.8608C39.9095 30.7353 39.8495 30.6196 39.7602 30.5286L38.1089 28.836C38.3621 28.1012 38.5625 27.3493 38.7084 26.5859L40.9948 25.9444C41.1176 25.91 41.2271 25.8395 41.3093 25.7419C41.3914 25.6444 41.4422 25.5244 41.4552 25.3976C41.5873 24.0981 41.5873 22.7886 41.4552 21.4892C41.4422 21.3622 41.3911 21.2421 41.3087 21.1445C41.2264 21.047 41.1165 20.9765 40.9935 20.9424ZM40.2314 24.84L37.9863 25.4706C37.8701 25.5033 37.7655 25.5685 37.685 25.6585C37.6044 25.7485 37.5512 25.8595 37.5316 25.9787C37.3728 26.9318 37.1231 27.8676 36.786 28.7732C36.744 28.8859 36.7349 29.0083 36.7597 29.126C36.7846 29.2437 36.8424 29.3519 36.9263 29.4381L38.5509 31.1021C38.1487 31.9417 37.6816 32.7486 37.1537 33.5155L34.901 32.9388C34.7843 32.9085 34.6615 32.9122 34.5469 32.9496C34.4323 32.987 34.3308 33.0564 34.2545 33.1496C33.6383 33.8948 32.9529 34.58 32.2075 35.1959C32.1146 35.2727 32.0454 35.3743 32.0081 35.4889C31.9707 35.6035 31.9668 35.7263 31.9967 35.8431L32.5733 38.0958C31.8067 38.624 30.9997 39.0911 30.16 39.493L28.496 37.8684C28.4101 37.7841 28.3018 37.726 28.184 37.7011C28.0662 37.6763 27.9437 37.6856 27.831 37.7281C26.9254 38.0651 25.9897 38.315 25.0366 38.4743C24.9174 38.494 24.8064 38.5472 24.7164 38.6277C24.6264 38.7083 24.5612 38.8128 24.5285 38.9291L23.8972 41.1716C22.9672 41.2447 22.0328 41.2447 21.1028 41.1716L20.4721 38.9265C20.4394 38.8103 20.3743 38.7057 20.2843 38.6252C20.1943 38.5446 20.0832 38.4914 19.964 38.4718C19.0109 38.313 18.0752 38.0633 17.1696 37.7262C17.0569 37.6836 16.9344 37.6743 16.8166 37.6991C16.6988 37.724 16.5905 37.7821 16.5046 37.8665L14.8407 39.4911C14.0011 39.0889 13.1941 38.6218 12.4273 38.0939L13.004 35.8412C13.0337 35.7245 13.0297 35.6018 12.9924 35.4873C12.955 35.3729 12.8859 35.2714 12.7931 35.1947C12.0493 34.5787 11.3654 33.8938 10.7506 33.149C10.6739 33.0561 10.5723 32.9869 10.4577 32.9496C10.3431 32.9122 10.2202 32.9083 10.1035 32.9382L7.85076 33.5148C7.3228 32.748 6.85563 31.9411 6.45353 31.1014L8.07812 29.4375C8.1621 29.3513 8.21988 29.2431 8.24473 29.1253C8.26958 29.0076 8.26047 28.8853 8.21848 28.7725C7.88122 27.867 7.63154 26.9312 7.47287 25.9781C7.45323 25.8589 7.40001 25.7478 7.31947 25.6578C7.23893 25.5678 7.1344 25.5027 7.01814 25.47L4.77179 24.8406C4.6984 23.9106 4.6984 22.9762 4.77179 22.0462L7.01687 21.4155C7.13313 21.3828 7.23766 21.3177 7.3182 21.2277C7.39874 21.1377 7.45196 21.0266 7.4716 20.9074C7.63043 19.9543 7.8801 19.0185 8.21721 18.113C8.2592 18.0002 8.2683 17.8779 8.24346 17.7602C8.21861 17.6424 8.16083 17.5342 8.07685 17.448L6.45226 15.7841C6.85445 14.9444 7.32162 14.1375 7.84949 13.3707L10.1022 13.9474C10.2189 13.9771 10.3416 13.9731 10.4561 13.9357C10.5705 13.8984 10.672 13.8293 10.7487 13.7365C11.3647 12.9927 12.0496 12.3088 12.7944 11.694C12.8873 11.6173 12.9565 11.5157 12.9938 11.4011C13.0312 11.2865 13.0351 11.1636 13.0052 11.0468L12.4286 8.79414C13.1954 8.26618 14.0023 7.79901 14.842 7.39692L16.5059 9.0215C16.5918 9.10595 16.7 9.16404 16.8179 9.18891C16.9357 9.21379 17.0582 9.2044 17.1709 9.16186C18.0765 8.82495 19.0122 8.57528 19.9653 8.41625C20.0845 8.39661 20.1956 8.34339 20.2856 8.26285C20.3755 8.18231 20.4407 8.07778 20.4734 7.96152L21.1028 5.71517C22.0328 5.64206 22.9672 5.64206 23.8972 5.71517L24.5279 7.96025C24.5606 8.07651 24.6257 8.18104 24.7157 8.26158C24.8057 8.34212 24.9168 8.39534 25.036 8.41498C25.9891 8.57381 26.9248 8.82348 27.8304 9.16059C27.9431 9.20313 28.0656 9.21252 28.1834 9.18764C28.3012 9.16277 28.4095 9.10468 28.4954 9.02023L30.1593 7.39564C30.9989 7.79783 31.8059 8.265 32.5727 8.79287L31.996 11.0456C31.9663 11.1622 31.9703 11.285 32.0076 11.3994C32.045 11.5139 32.1141 11.6154 32.2069 11.6921C32.9521 12.3083 33.6373 12.9936 34.2532 13.739C34.3299 13.832 34.4315 13.9011 34.5461 13.9385C34.6607 13.9758 34.7836 13.9798 34.9004 13.9499L37.1531 13.3732C37.6812 14.1399 38.1484 14.9468 38.5503 15.7866L36.9257 17.4506C36.8417 17.5367 36.7839 17.645 36.7591 17.7627C36.7342 17.8804 36.7433 18.0028 36.7853 18.1155C37.1223 19.0211 37.3719 19.9569 37.5309 20.91C37.5506 21.0291 37.6038 21.1402 37.6843 21.2302C37.7649 21.3202 37.8694 21.3854 37.9857 21.418L40.2308 22.0487C40.3035 22.978 40.3026 23.9115 40.2282 24.8406L40.2314 24.84Z" fill="white"/>
<path d="M22.5 10.7412C19.9878 10.7412 17.532 11.4862 15.4431 12.8819C13.3543 14.2776 11.7262 16.2614 10.7649 18.5824C9.80348 20.9034 9.55193 23.4573 10.042 25.9213C10.5322 28.3852 11.7419 30.6485 13.5183 32.4249C15.2947 34.2013 17.558 35.4111 20.022 35.9012C22.4859 36.3913 25.0399 36.1398 27.3609 35.1784C29.6819 34.217 31.6656 32.5889 33.0614 30.5001C34.4571 28.4113 35.202 25.9555 35.202 23.4432C35.1982 20.0756 33.8587 16.8471 31.4774 14.4658C29.0962 12.0846 25.8676 10.7451 22.5 10.7412ZM33.8994 24.0783C33.7589 26.6642 32.7396 29.1246 31.0104 31.0524L29.6849 29.7307L28.7875 30.6281L30.1092 31.9536C28.1814 33.6829 25.721 34.7021 23.1351 34.8427V32.9698H21.8649V34.8427C19.279 34.7021 16.8186 33.6829 14.8909 31.9536L16.2125 30.6281L15.3151 29.7307L13.9928 31.053C12.2623 29.1255 11.2419 26.6648 11.1006 24.0783H12.9735V22.8081H11.1006C11.242 20.2218 12.2624 17.7614 13.9928 15.8341L15.3151 17.1557L16.2125 16.2583L14.8902 14.9361C16.8177 13.2055 19.2784 12.1851 21.8649 12.0438V13.9167H23.1351V12.0438C25.7214 12.1853 28.1818 13.2056 30.1092 14.9361L28.7875 16.2583L29.6849 17.1557L31.0104 15.8341C32.7396 17.7618 33.7589 20.2222 33.8994 22.8081H32.0265V24.0783H33.8994Z" fill="white"/>
<path d="M27.2283 17.834L22.6194 20.9073C22.5794 20.9028 22.54 20.9028 22.5 20.9028C21.9976 20.9028 21.5064 21.0518 21.0886 21.331C20.6709 21.6101 20.3452 22.0069 20.153 22.4711C19.9607 22.9353 19.9104 23.4461 20.0084 23.9389C20.1064 24.4316 20.3484 24.8843 20.7037 25.2396C21.0589 25.5949 21.5116 25.8368 22.0044 25.9348C22.4972 26.0329 23.008 25.9826 23.4722 25.7903C23.9364 25.598 24.3331 25.2724 24.6123 24.8546C24.8914 24.4369 25.0404 23.9457 25.0404 23.4432C25.0404 23.4039 25.0404 23.3639 25.036 23.3245L28.1092 18.7149C28.1908 18.5928 28.2275 18.4461 28.2131 18.2999C28.1987 18.1536 28.1341 18.017 28.0302 17.9131C27.9263 17.8092 27.7896 17.7445 27.6434 17.7301C27.4972 17.7157 27.3505 17.7524 27.2283 17.834ZM23.849 22.8151C23.7621 22.9512 23.7274 23.114 23.7512 23.2737C23.7617 23.3297 23.768 23.3863 23.7702 23.4432C23.7702 23.6945 23.6957 23.9401 23.5561 24.1489C23.4166 24.3578 23.2182 24.5206 22.9861 24.6168C22.754 24.7129 22.4986 24.7381 22.2522 24.689C22.0058 24.64 21.7795 24.5191 21.6018 24.3414C21.4242 24.1638 21.3032 23.9375 21.2542 23.6911C21.2052 23.4447 21.2303 23.1893 21.3265 22.9572C21.4226 22.7251 21.5854 22.5267 21.7943 22.3871C22.0032 22.2475 22.2488 22.173 22.5 22.173C22.561 22.1756 22.6217 22.1826 22.6816 22.194C22.837 22.2164 22.9953 22.1809 23.1262 22.0943L25.2887 20.6526L23.849 22.8151Z" fill="white"/>
</svg>
