<svg width="48" height="48" viewBox="0 0 48 48" fill="none" xmlns="http://www.w3.org/2000/svg">
<path d="M40.2902 40.3609C40.26 40.5299 40.1624 40.6803 40.019 40.7789C39.8756 40.8774 39.698 40.9162 39.5254 40.8866L34.1303 39.9625C33.9577 39.9329 33.8042 39.8374 33.7035 39.6969C33.6028 39.5565 33.5632 39.3827 33.5934 39.2136L33.6987 38.6239L32.4402 37.6232C31.9472 37.2212 31.3138 37.0229 30.674 37.0701L21.8759 37.6998C21.8612 37.7009 21.8465 37.7014 21.8318 37.7015H21.7777C19.8362 37.6977 17.946 37.0918 16.3781 35.9707C16.3529 35.9526 16.329 35.9328 16.3066 35.9114L5.82717 25.8641C5.70682 25.7488 5.63602 25.5927 5.62922 25.4279C5.62241 25.2632 5.68013 25.102 5.79058 24.9775C6.37266 24.3196 7.19113 23.9065 8.07608 23.8239C8.96103 23.7413 9.84449 23.9955 10.5431 24.5338L15.3562 28.0581C15.8478 27.4722 16.4894 27.0246 17.2153 26.7608C17.9413 26.4971 18.7258 26.4266 19.4886 26.5566L24.4087 27.3993C25.1927 27.5326 25.9972 27.4915 26.7628 27.2792L27.313 27.1255C28.7058 26.7337 30.1751 26.6797 31.594 26.9681C33.013 27.2565 34.3389 27.8787 35.4574 28.781L35.6646 27.6208C35.6949 27.4518 35.7924 27.3015 35.9358 27.2029C36.0793 27.1043 36.2568 27.0655 36.4294 27.0951L41.8243 28.0193C41.9969 28.0489 42.1504 28.1445 42.2511 28.2849C42.3518 28.4253 42.3914 28.5992 42.3612 28.7682L40.2902 40.3609ZM27.6745 28.3705L27.1243 28.5242C26.167 28.7896 25.1611 28.841 24.1809 28.6744L19.2609 27.8317C18.5765 27.7153 17.8721 27.8305 17.2635 28.1584C16.6549 28.4863 16.1785 29.0073 15.9126 29.6357L23.2783 30.8974C23.4413 30.9251 23.5878 31.0117 23.6887 31.14C23.7897 31.2683 23.8378 31.4291 23.8236 31.5905C23.8094 31.7519 23.7339 31.9021 23.612 32.0117C23.4901 32.1212 23.3307 32.1819 23.1652 32.1819C23.1268 32.1819 23.0884 32.1786 23.0505 32.1721L14.963 30.7869C14.7904 30.7573 14.6368 30.6618 14.5362 30.5214C14.4355 30.3809 14.3959 30.2071 14.4261 30.0381C14.4788 29.7432 14.5629 29.4545 14.6771 29.1768L9.74506 25.5656C9.74043 25.5623 9.73597 25.5588 9.73143 25.5553C9.3839 25.2861 8.95951 25.1292 8.51696 25.1063C8.0744 25.0835 7.63553 25.1959 7.26102 25.4279L17.1972 34.9567C18.5309 35.8996 20.133 36.4091 21.778 36.4134H21.8028L30.5784 35.7825C31.556 35.7099 32.5242 36.0118 33.2789 36.6245L33.9598 37.1652L35.1882 30.2886C34.2264 29.3387 33.0215 28.6595 31.6996 28.322C30.3777 27.9846 28.9875 28.0013 27.6745 28.3705ZM36.8525 28.4815L35.0089 38.7993L39.1023 39.5004L40.9456 29.1828L36.8525 28.4815Z" fill="white"/>
<path d="M22.3479 25.5623C20.5732 25.5623 18.8384 25.047 17.3628 24.0816C15.8872 23.1162 14.7371 21.744 14.0579 20.1385C13.3787 18.5331 13.201 16.7665 13.5472 15.0621C13.8934 13.3578 14.748 11.7923 16.0029 10.5635C17.2578 9.33471 18.8566 8.49789 20.5972 8.15885C22.3378 7.8198 24.142 7.99376 25.7816 8.65873C27.4212 9.3237 28.8227 10.4498 29.8087 11.8946C30.7947 13.3395 31.321 15.0382 31.321 16.7759C31.3184 19.1054 30.3722 21.3387 28.69 22.9859C27.0078 24.6331 24.727 25.5597 22.3479 25.5623ZM22.3479 9.28406C20.8346 9.28406 19.3552 9.72347 18.097 10.5467C16.8387 11.37 15.858 12.5401 15.2788 13.9091C14.6997 15.2781 14.5482 16.7845 14.8435 18.2379C15.1387 19.6912 15.8675 21.0262 16.9376 22.0739C18.0077 23.1217 19.3711 23.8352 20.8553 24.1243C22.3396 24.4134 23.8781 24.265 25.2762 23.6979C26.6743 23.1308 27.8693 22.1704 28.71 20.9383C29.5508 19.7062 29.9995 18.2577 29.9994 16.7759C29.9971 14.7896 29.1902 12.8853 27.7557 11.4808C26.3213 10.0763 24.3765 9.28631 22.3479 9.28406Z" fill="white"/>
<path d="M22.8105 18.1348H19.1134C18.9381 18.1348 18.7701 18.0666 18.6461 17.9453C18.5222 17.8239 18.4526 17.6594 18.4526 17.4878C18.4526 17.3162 18.5222 17.1516 18.6461 17.0302C18.7701 16.9089 18.9381 16.8407 19.1134 16.8407H22.1827V12.7039C22.1827 12.5323 22.2524 12.3677 22.3763 12.2464C22.5002 12.1251 22.6683 12.0569 22.8435 12.0569C23.0188 12.0569 23.1869 12.1251 23.3108 12.2464C23.4347 12.3677 23.5043 12.5323 23.5043 12.7039V17.4554C23.498 17.6336 23.4229 17.8029 23.2941 17.929C23.1653 18.0551 22.9925 18.1286 22.8105 18.1348Z" fill="white"/>
</svg>
