<svg width="51" height="51" viewBox="0 0 51 51" fill="none" xmlns="http://www.w3.org/2000/svg">
<g clip-path="url(#clip0_40_370)">
<path d="M42.8722 37.4274C42.7125 37.4602 42.5471 37.4774 42.3778 37.4774H30.4705V41.8592H31.9148C32.3361 41.8592 32.6776 42.2007 32.6776 42.6219C32.6776 43.0432 32.3361 43.3847 31.9148 43.3847H30.4705H21.0597H19.6153C19.1941 43.3847 18.8526 43.0432 18.8526 42.6219C18.8526 42.2007 19.1941 41.8592 19.6153 41.8592H21.0597V37.4774H9.15238C8.98306 37.4774 8.81771 37.4602 8.65795 37.4274C7.53958 37.198 6.69613 36.2064 6.69613 35.0212V30.9977V12.1596C6.69613 10.8054 7.79781 9.70337 9.15238 9.70337H42.3778C43.7324 9.70337 44.834 10.8054 44.834 12.1596V30.9977V35.0212C44.834 36.2064 43.9905 37.198 42.8722 37.4274ZM22.5852 41.8592H28.945V37.4774H22.5852V41.8592ZM9.15238 35.9519H21.0597V35.9478H30.4705V35.9519H42.3778C42.891 35.9519 43.3085 35.5344 43.3085 35.0212V32.5232H8.22165V35.0212C8.22165 35.5344 8.63913 35.9519 9.15238 35.9519ZM43.3085 12.1596C43.3085 11.6464 42.891 11.2289 42.3778 11.2289H9.15238C8.63913 11.2289 8.22165 11.6464 8.22165 12.1596V30.9977H43.3085V12.1596Z" fill="white"/>
<path d="M25.7651 33.5167C26.1617 33.5167 26.4821 33.837 26.4821 34.2337C26.4821 34.638 26.1617 34.9583 25.7651 34.9583C25.3684 34.9583 25.0481 34.638 25.0481 34.2337C25.0481 33.837 25.3684 33.5167 25.7651 33.5167ZM12.2209 13.0061C13.296 13.0061 14.2004 13.7065 14.5239 14.6694H18.0757L20.3128 16.3619C21.6987 14.9427 23.6294 14.0579 25.7651 14.0579C27.9279 14.0579 29.8789 14.9668 31.2683 16.4178L33.5793 14.6694H37.2346C37.558 13.7065 38.4624 13.0061 39.5376 13.0061C40.8753 13.0061 41.9637 14.0944 41.9637 15.4321C41.9637 16.77 40.8753 17.8582 39.5376 17.8582C38.4625 17.8582 37.5581 17.1578 37.2346 16.1949H34.091L32.2076 17.62C32.8254 18.5956 33.2336 19.7161 33.354 20.9227H36.3562C36.6776 19.9871 37.5602 19.3082 38.6079 19.3082C39.9189 19.3082 40.9853 20.3745 40.9853 21.6855C40.9853 22.9961 39.9189 24.0624 38.6079 24.0624C37.5603 24.0624 36.6777 23.3836 36.3563 22.4482H33.354C33.2336 23.6548 32.8254 24.7753 32.2076 25.7509L34.091 27.1756H37.135C37.4564 26.2399 38.339 25.5611 39.3867 25.5611C40.6973 25.5611 41.7637 26.6274 41.7637 27.9384C41.7637 29.2493 40.6973 30.3157 39.3867 30.3157C38.339 30.3157 37.4564 29.6368 37.135 28.7011H33.5793L31.2683 26.9531C29.8788 28.4041 27.9279 29.313 25.7651 29.313C23.6294 29.313 21.6987 28.4282 20.3128 27.009L18.0671 28.7078L15.3155 28.636C14.9895 29.5633 14.1106 30.2341 13.0689 30.2341C11.758 30.2341 10.6916 29.1678 10.6916 27.8568C10.6916 26.5458 11.758 25.4795 13.0689 25.4795C14.1227 25.4795 15.0092 26.1664 15.3258 27.1104L17.5725 27.1689L19.3618 25.8154C18.721 24.8253 18.2992 23.6811 18.1762 22.4482H15.4022C15.0807 23.3836 14.1981 24.0624 13.1505 24.0624C11.8399 24.0624 10.7736 22.9961 10.7736 21.6855C10.7736 20.3745 11.8399 19.3082 13.1505 19.3082C14.1983 19.3082 15.0808 19.9871 15.4022 20.9227H18.1762C18.2992 19.6898 18.721 18.5455 19.3619 17.5553L17.5639 16.1949H14.5238C14.2004 17.1578 13.296 17.8582 12.2209 17.8582C10.8831 17.8582 9.79482 16.77 9.79482 15.4321C9.79482 14.0944 10.8831 13.0061 12.2209 13.0061ZM39.5376 16.3327C40.034 16.3327 40.4381 15.9286 40.4381 15.4321C40.4381 14.9357 40.034 14.5316 39.5376 14.5316C39.0344 14.5316 38.6247 14.9357 38.6247 15.4321C38.6247 15.9286 39.0344 16.3327 39.5376 16.3327ZM39.3867 28.7902C39.856 28.7902 40.2381 28.408 40.2381 27.9384C40.2381 27.4687 39.856 27.0866 39.3867 27.0866C38.9104 27.0866 38.5231 27.4687 38.5231 27.9384C38.5231 28.408 38.9104 28.7902 39.3867 28.7902ZM13.0689 27.005C12.5993 27.005 12.2172 27.3872 12.2172 27.8568C12.2172 28.3264 12.5993 28.7086 13.0689 28.7086C13.5453 28.7086 13.9326 28.3264 13.9326 27.8568C13.9326 27.3872 13.5453 27.005 13.0689 27.005ZM38.6079 22.5368C39.0776 22.5368 39.4597 22.1551 39.4597 21.6855C39.4597 21.2158 39.0776 20.8337 38.6079 20.8337C38.1316 20.8337 37.7442 21.2158 37.7442 21.6855C37.7442 22.1551 38.1316 22.5368 38.6079 22.5368ZM25.7651 27.7875C29.1297 27.7875 31.8672 25.0501 31.8672 21.6855C31.8672 18.3208 29.1297 15.5834 25.7651 15.5834C22.4005 15.5834 19.663 18.3208 19.663 21.6855C19.663 25.0501 22.4005 27.7875 25.7651 27.7875ZM13.1505 20.8337C12.6812 20.8337 12.2991 21.2158 12.2991 21.6855C12.2991 22.1551 12.6812 22.5368 13.1505 22.5368C13.6269 22.5368 14.0142 22.1551 14.0142 21.6855C14.0142 21.2158 13.6269 20.8337 13.1505 20.8337ZM12.2209 16.3327C12.724 16.3327 13.1337 15.9286 13.1337 15.4321C13.1337 14.9357 12.724 14.5316 12.2209 14.5316C11.7244 14.5316 11.3203 14.9357 11.3203 15.4321C11.3203 15.9286 11.7244 16.3327 12.2209 16.3327Z" fill="white"/>
<path d="M26.1494 18.465C26.2686 18.1824 26.5454 17.9988 26.8522 17.9988C27.1591 17.9988 27.4359 18.1824 27.555 18.465L30.0206 24.3128C30.1845 24.7012 30.0023 25.1485 29.6142 25.312C29.5174 25.353 29.4169 25.3723 29.3181 25.3723C29.0206 25.3723 28.7379 25.1969 28.615 24.9057L28.1524 23.8085H25.5524L25.0898 24.9057C24.9259 25.2934 24.4801 25.4767 24.0906 25.312C23.7025 25.1485 23.5203 24.7012 23.6842 24.3128L26.1494 18.465ZM27.5091 22.2829L26.8522 20.725L26.1955 22.2829H27.5091ZM22.2124 17.9988C22.6336 17.9988 22.9751 18.3403 22.9751 18.7615V24.6092C22.9751 25.0304 22.6336 25.372 22.2124 25.372C21.7911 25.372 21.4496 25.0304 21.4496 24.6092V18.7615C21.4496 18.3403 21.7911 17.9988 22.2124 17.9988Z" fill="white"/>
</g>
<defs>
<clipPath id="clip0_40_370">
<rect width="50" height="50" fill="white" transform="matrix(-1 0 0 1 50.7651 0.0498047)"/>
</clipPath>
</defs>
</svg>
