<svg width="42" height="43" viewBox="0 0 42 43" fill="none" xmlns="http://www.w3.org/2000/svg">
<g clip-path="url(#clip0_40_381)">
<path d="M41.5014 25.5302C41.301 25.2366 40.9 25.1615 40.6062 25.3616C39.0486 26.4254 37.4898 27.5577 35.9714 28.7275C35.7529 28.8963 35.3579 29.0261 35.2239 28.8371L29.9758 20.8348C30.0362 20.7221 30.1434 20.5954 30.3173 20.49C31.4411 19.8058 32.5606 19.0941 33.6441 18.3747C33.9408 18.1782 34.0216 17.7784 33.8247 17.4817C33.6284 17.1858 33.2283 17.1046 32.932 17.3015C31.8619 18.0114 30.757 18.7141 29.6486 19.3888C29.2733 19.6162 28.9838 19.9325 28.8091 20.2881C28.7372 20.2881 13.1176 20.2881 13.1908 20.2881C13.0162 19.9326 12.7269 19.6165 12.3526 19.3898C11.2429 18.7142 10.1379 18.0115 9.06781 17.3015C8.77185 17.1037 8.37203 17.1851 8.17515 17.4817C7.97828 17.7784 8.05908 18.1781 8.3557 18.3747C9.43933 19.0941 10.5587 19.8059 11.6839 20.491C11.8426 20.5871 12.0066 20.8066 12.0066 20.8066C11.5394 21.5251 10.23 23.5387 6.93328 28.6085C6.86889 28.6347 6.72533 29.2651 6.02774 28.7269C4.51008 27.5578 2.95124 26.4254 1.39363 25.3617C1.1002 25.161 0.699397 25.2362 0.498421 25.5302C0.297772 25.824 0.373241 26.2247 0.666995 26.4254C2.20418 27.4757 3.74317 28.5933 5.24073 29.7466C6.0991 30.4105 7.27314 30.3894 7.83915 29.5649L8.11174 29.1678C8.75946 29.7576 8.89694 30.0498 9.14976 30.6134C8.99333 30.7351 8.84576 30.8713 8.72214 31.0381C7.99706 32.0182 8.18327 33.4207 9.18922 34.1653L9.26978 34.2248C9.69092 34.5363 10.1811 34.6962 10.8027 34.6383C10.8516 35.2769 11.1567 35.8926 11.7106 36.3027H11.7109C12.1813 36.6508 12.7596 36.8221 13.4467 36.7069C13.5229 37.3036 13.8283 37.8701 14.3487 38.2553C14.8474 38.6246 15.4676 38.7945 16.1775 38.6456C16.2716 39.1414 16.5388 39.6057 16.9754 39.9289C17.3462 40.2035 17.7794 40.336 18.209 40.336C18.7632 40.336 19.3024 40.1033 19.7036 39.6834C20.8106 40.2932 22.1241 39.9238 22.7875 38.9567C23.0032 38.6424 23.1372 38.289 23.1841 37.9212L23.4814 38.1332C24.5561 38.8708 26.0285 38.5958 26.7655 37.5224C26.9819 37.2076 27.1159 36.853 27.1624 36.4844C28.2123 37.1073 29.5972 36.8285 30.3116 35.788C30.5292 35.4713 30.6636 35.1146 30.7095 34.7437L30.7314 34.7588C31.8062 35.4965 33.2789 35.2218 34.0159 34.1483C34.7494 33.0795 34.4814 31.6147 33.4199 30.8742L33.3096 30.7898L34.6231 29.9948C35.29 30.3913 36.1349 30.2292 36.7584 29.7472C38.2566 28.5932 39.7957 27.4756 41.3328 26.4254C41.6267 26.2246 41.7021 25.8239 41.5014 25.5302ZM11.4726 32.7839C11.4065 32.8753 11.218 33.1357 11.2083 33.1495C10.881 33.4262 10.3954 33.4549 10.0358 33.1886C10.0355 33.1883 10.0351 33.1883 10.0348 33.1879L9.95523 33.1291C9.53564 32.8186 9.44696 32.2245 9.7577 31.8049C10.0665 31.3877 10.6599 31.2947 11.0826 31.6077L11.1622 31.6665C11.5169 31.9291 11.6319 32.393 11.4726 32.7839ZM13.8716 35.0592C13.5439 35.5011 12.9216 35.5949 12.4775 35.2671C12.051 34.9514 11.9533 34.3592 12.2407 33.9212C12.3434 33.8085 12.8188 33.1363 12.9893 32.9005C13.3211 32.4528 13.946 32.3685 14.3834 32.6925C14.8251 33.0195 14.9182 33.6444 14.592 34.0859L13.8716 35.0592ZM16.5093 37.0118C16.1752 37.4627 15.5489 37.5407 15.1156 37.2198H15.1152C14.6714 36.8908 14.5801 36.2678 14.907 35.8257L16.2675 33.9881C16.5934 33.5478 17.218 33.4517 17.6615 33.78C18.1031 34.1071 18.1965 34.7327 17.8697 35.174L16.5093 37.0118ZM19.0335 38.4757L18.8463 38.7282C18.5869 39.0787 18.0912 39.1528 17.7423 38.8934H17.742C17.3922 38.6345 17.3183 38.1391 17.5772 37.789L17.7643 37.5364C18.0235 37.1861 18.5189 37.1129 18.8687 37.3713C19.2192 37.6308 19.2932 38.1248 19.0335 38.4757ZM32.9538 33.4191C32.6192 33.9069 31.9501 34.0321 31.4576 33.6943L24.7683 29.1165C24.4754 28.9145 24.074 28.9897 23.8727 29.2828C23.796 29.3945 23.7592 29.5219 23.7595 29.6477C23.7599 29.8525 23.8573 30.0538 24.0392 30.1784L28.9725 33.566C29.4544 33.8961 29.5906 34.5624 29.2496 35.0585C28.9159 35.5456 28.2485 35.6735 27.7571 35.3363L22.8235 31.9489C22.5728 31.7756 22.2353 31.8037 22.0148 32.0131L21.9632 32.0621C21.8214 32.1974 21.7484 32.3899 21.7657 32.5853C21.783 32.7809 21.8881 32.9577 22.0516 33.0662L25.4259 35.3007C25.915 35.6363 26.0394 36.3039 25.7037 36.7932C25.3681 37.281 24.6984 37.4053 24.22 37.0772L21.044 34.8128C20.7572 34.609 20.359 34.6722 20.1511 34.956C19.9425 35.2397 20.0004 35.6382 20.281 35.8508L21.4482 36.7347C21.9361 37.07 22.0607 37.7394 21.7253 38.2275C21.4157 38.6791 20.8216 38.8148 20.3849 38.5965C20.6465 37.7189 20.3167 36.8403 19.6352 36.3356C19.4004 36.162 19.1404 36.0469 18.8724 35.9848L18.9052 35.9405C19.6544 34.9283 19.4405 33.4943 18.428 32.7445C17.6643 32.1793 16.662 32.1631 15.8934 32.6229C15.7405 32.2515 15.4957 31.9129 15.1501 31.6571C14.6594 31.2938 14.0565 31.1434 13.4529 31.2334C13.1587 31.2773 12.8824 31.3778 12.6334 31.524C12.4786 31.1743 12.2441 30.8643 11.928 30.6304L11.8484 30.5715C11.4013 30.2404 10.8707 30.1112 10.355 30.1497C9.99534 29.3549 9.76123 28.893 8.86003 28.1072C15.3426 18.6211 12.2423 23.1579 13.1161 21.8793C13.1813 21.7842 13.2313 21.682 13.2721 21.5763H16.1885C14.811 22.3676 13.9552 23.8368 13.9552 25.4282V26.2309C13.9552 27.2697 14.9618 28.0059 15.952 27.696C16.6747 27.4705 17.2736 26.9424 17.6838 26.1686C18.5276 24.5752 20.7385 24.5703 21.6612 25.8396C22.1402 26.4985 23.0719 27.284 24.7884 27.284C25.4634 27.284 26.1157 27.4841 26.6753 27.8627L31.7382 31.2909C31.7413 31.2931 31.7445 31.2953 31.7477 31.2975L32.6736 31.9244C32.6745 31.925 32.6753 31.9256 32.6762 31.9263C33.1642 32.2613 33.2888 32.9309 32.9538 33.4191ZM32.1281 29.9991L27.3975 26.7958C26.624 26.2725 25.7216 25.9956 24.7884 25.9956C23.8457 25.9956 23.1443 25.688 22.7033 25.0819C21.2335 23.0592 17.8454 23.1111 16.5452 25.5653C16.2942 26.0392 15.9655 26.3422 15.5685 26.4661C15.404 26.5165 15.2436 26.3977 15.2436 26.2309V25.4282C15.2436 24.2848 15.8639 23.2286 16.8623 22.6712L18.8237 21.5762H28.7281C28.7689 21.6818 28.8191 21.784 28.8844 21.8792L33.7747 29.0024L32.1281 29.9991Z" fill="white"/>
<path d="M20.9969 17.3364C24.8009 17.3364 27.896 14.2441 27.896 10.4435C27.896 6.64295 24.8009 3.55103 20.9969 3.55103C17.1963 3.55103 14.104 6.64295 14.104 10.4435C14.104 14.2441 17.1963 17.3364 20.9969 17.3364ZM20.9969 4.83933C24.0907 4.83933 26.6077 7.35342 26.6077 10.4435C26.6077 13.5339 24.0907 16.048 20.9969 16.048C17.9065 16.048 15.3924 13.5339 15.3924 10.4435C15.3923 7.35342 17.9065 4.83933 20.9969 4.83933Z" fill="white"/>
<path d="M19.5909 12.4212C19.842 12.6723 20.2498 12.6732 20.5017 12.4212L23.5462 9.37673C23.7978 9.12506 23.7978 8.71744 23.5462 8.46585C23.2945 8.21418 22.8869 8.21418 22.6353 8.46585L20.0463 11.0545L19.3647 10.3729C19.113 10.1212 18.7054 10.1212 18.4538 10.3729C18.2022 10.6243 18.2022 11.0322 18.4538 11.2838L19.5909 12.4212Z" fill="white"/>
</g>
<defs>
<clipPath id="clip0_40_381">
<rect width="42" height="42" fill="white" transform="translate(0 0.943359)"/>
</clipPath>
</defs>
</svg>
