<svg width="42" height="42" viewBox="0 0 42 42" fill="none" xmlns="http://www.w3.org/2000/svg">
<path d="M7.87498 28.8751V29.2032C7.87498 29.8123 8.11697 30.3966 8.54772 30.8273C8.97847 31.2581 9.56269 31.5001 10.1719 31.5001H18.7031C19.3123 31.5001 19.8965 31.2581 20.3272 30.8273C20.758 30.3966 21 29.8123 21 29.2032V28.8751C21.0263 27.7426 20.6759 26.6335 20.0036 25.7219C19.3313 24.8103 18.3752 24.1477 17.2856 23.8383C17.9284 23.2619 18.381 22.5039 18.5838 21.6646C18.7866 20.8254 18.7299 19.9444 18.4213 19.138C18.1126 18.3317 17.5666 17.638 16.8553 17.1486C16.1439 16.6592 15.3009 16.3972 14.4375 16.3972C13.5741 16.3972 12.731 16.6592 12.0197 17.1486C11.3084 17.638 10.7623 18.3317 10.4537 19.138C10.1451 19.9444 10.0884 20.8254 10.2912 21.6646C10.4939 22.5039 10.9466 23.2619 11.5894 23.8383C10.4997 24.1477 9.54369 24.8103 8.8714 25.7219C8.19911 26.6335 7.84863 27.7426 7.87498 28.8751ZM14.4375 17.7188C15.0216 17.7188 15.5925 17.892 16.0781 18.2165C16.5638 18.541 16.9423 19.0022 17.1658 19.5418C17.3893 20.0814 17.4478 20.6752 17.3339 21.2481C17.2199 21.8209 16.9387 22.3471 16.5257 22.7601C16.1127 23.1731 15.5865 23.4544 15.0136 23.5683C14.4408 23.6823 13.847 23.6238 13.3074 23.4003C12.7678 23.1767 12.3065 22.7982 11.982 22.3126C11.6576 21.827 11.4844 21.256 11.4844 20.6719C11.4844 19.8887 11.7955 19.1376 12.3493 18.5838C12.9031 18.0299 13.6543 17.7188 14.4375 17.7188ZM13.125 24.9376H15.75C16.2703 24.9259 16.7875 25.0198 17.2705 25.2135C17.7535 25.4073 18.1922 25.6969 18.5602 26.0649C18.9281 26.4328 19.2178 26.8716 19.4115 27.3546C19.6053 27.8375 19.6991 28.3548 19.6875 28.8751V29.2032C19.6875 29.4642 19.5838 29.7146 19.3992 29.8992C19.2146 30.0838 18.9642 30.1876 18.7031 30.1876H10.1719C9.91078 30.1876 9.6604 30.0838 9.4758 29.8992C9.29119 29.7146 9.18748 29.4642 9.18748 29.2032V28.8751C9.17583 28.3548 9.26971 27.8375 9.46346 27.3546C9.65721 26.8716 9.94682 26.4328 10.3148 26.0649C10.6828 25.6969 11.1215 25.4073 11.6045 25.2135C12.0875 25.0198 12.6047 24.9259 13.125 24.9376Z" fill="white"/>
<path d="M34.7812 24.2812C34.6072 24.2812 34.4403 24.3504 34.3172 24.4735C34.1941 24.5965 34.125 24.7635 34.125 24.9375V33.1406C34.125 33.4017 34.0213 33.6521 33.8367 33.8367C33.6521 34.0213 33.4017 34.125 33.1406 34.125H6.23438C5.9733 34.125 5.72292 34.0213 5.53832 33.8367C5.35371 33.6521 5.25 33.4017 5.25 33.1406V14.1094C5.25 13.8483 5.35371 13.5979 5.53832 13.4133C5.72292 13.2287 5.9733 13.125 6.23438 13.125H20.6719C20.8459 13.125 21.0128 13.0559 21.1359 12.9328C21.259 12.8097 21.3281 12.6428 21.3281 12.4688C21.3281 12.2947 21.259 12.1278 21.1359 12.0047C21.0128 11.8816 20.8459 11.8125 20.6719 11.8125H6.23438C5.62521 11.8125 5.04099 12.0545 4.61024 12.4852C4.17949 12.916 3.9375 13.5002 3.9375 14.1094V33.1406C3.9375 33.7498 4.17949 34.334 4.61024 34.7648C5.04099 35.1955 5.62521 35.4375 6.23438 35.4375H33.1406C33.7498 35.4375 34.334 35.1955 34.7648 34.7648C35.1955 34.334 35.4375 33.7498 35.4375 33.1406V24.9375C35.4375 24.7635 35.3684 24.5965 35.2453 24.4735C35.1222 24.3504 34.9553 24.2812 34.7812 24.2812ZM34.207 12.0061L30.0792 16.1339L27.4805 13.5352C27.3573 13.412 27.1903 13.3428 27.0162 13.3428C26.842 13.3428 26.675 13.412 26.5519 13.5352C26.4287 13.6583 26.3596 13.8253 26.3596 13.9995C26.3596 14.1736 26.4287 14.3406 26.5519 14.4638L29.6133 17.5252C29.6743 17.5866 29.7469 17.6353 29.8269 17.6685C29.9069 17.7017 29.9926 17.7188 30.0792 17.7188C30.253 17.718 30.4194 17.6484 30.5419 17.5252L35.1356 12.9314C35.2485 12.8064 35.309 12.6427 35.3046 12.4743C35.3001 12.3059 35.2311 12.1457 35.1118 12.0268C34.9924 11.9078 34.8319 11.8394 34.6635 11.8355C34.4951 11.8317 34.3317 11.8928 34.207 12.0061Z" fill="white"/>
<path d="M38.8106 8.35731C38.7944 8.20575 38.7259 8.06457 38.6169 7.958C38.508 7.85142 38.3653 7.7861 38.2134 7.77325C36.9617 7.61134 35.7396 7.27101 34.5844 6.76262C33.3911 6.26574 32.2794 5.5921 31.2867 4.76434C31.1657 4.65367 31.0077 4.59229 30.8437 4.59229C30.6798 4.59229 30.5217 4.65367 30.4008 4.76434C29.4083 5.59247 28.2965 6.26614 27.1031 6.76262C25.954 7.26887 24.7387 7.60915 23.4937 7.77325C23.3413 7.78537 23.1978 7.85037 23.0882 7.95701C22.9785 8.06365 22.9096 8.20524 22.8933 8.35731C22.8637 8.63622 22.2075 15.1889 23.8284 18.4242C25.7676 22.2895 30.3909 24.4584 30.5845 24.5503C30.6709 24.5903 30.7649 24.611 30.8601 24.611C30.9553 24.611 31.0494 24.5903 31.1358 24.5503C31.3294 24.4584 35.9526 22.2895 37.8919 18.4242C39.4964 15.1889 38.8401 8.63622 38.8106 8.35731ZM36.7008 17.8368C35.2275 20.7801 31.8281 22.7062 30.8437 23.2214C29.8594 22.7062 26.46 20.7801 24.9867 17.8368C23.7792 15.4218 24.022 10.5886 24.1401 9.007C25.3361 8.79862 26.5034 8.45061 27.6183 7.97012C28.7675 7.48413 29.8511 6.85578 30.8437 6.09981C31.8364 6.85578 32.92 7.48413 34.0692 7.97012C35.184 8.45061 36.3514 8.79862 37.5473 9.007C37.6687 10.5886 37.9115 15.4218 36.7008 17.8368ZM24.2812 31.5H30.8437C31.0178 31.5 31.1847 31.4308 31.3078 31.3078C31.4308 31.1847 31.5 31.0178 31.5 30.8437C31.5 30.6697 31.4308 30.5027 31.3078 30.3797C31.1847 30.2566 31.0178 30.1875 30.8437 30.1875H24.2812C24.1072 30.1875 23.9403 30.2566 23.8172 30.3797C23.6941 30.5027 23.625 30.6697 23.625 30.8437C23.625 31.0178 23.6941 31.1847 23.8172 31.3078C23.9403 31.4308 24.1072 31.5 24.2812 31.5ZM24.2812 27.5625H28.2187C28.3928 27.5625 28.5597 27.4933 28.6828 27.3703C28.8058 27.2472 28.875 27.0803 28.875 26.9062C28.875 26.7322 28.8058 26.5652 28.6828 26.4422C28.5597 26.3191 28.3928 26.25 28.2187 26.25H24.2812C24.1072 26.25 23.9403 26.3191 23.8172 26.4422C23.6941 26.5652 23.625 26.7322 23.625 26.9062C23.625 27.0803 23.6941 27.2472 23.8172 27.3703C23.9403 27.4933 24.1072 27.5625 24.2812 27.5625Z" fill="white"/>
</svg>
