<svg width="34" height="34" viewBox="0 0 34 34" fill="none" xmlns="http://www.w3.org/2000/svg">
<g clip-path="url(#clip0_47_1850)">
<path d="M11.6875 16.49C11.0615 16.491 10.4499 16.6776 9.92986 17.0262C9.40988 17.3747 9.00488 17.8696 8.76605 18.4482C8.52721 19.0269 8.46527 19.6634 8.58804 20.2772C8.71081 20.891 9.01278 21.4547 9.4558 21.897C9.89882 22.3393 10.463 22.6403 11.077 22.762C11.6911 22.8838 12.3275 22.8208 12.9057 22.581C13.4839 22.3412 13.9781 21.9353 14.3258 21.4148C14.6735 20.8942 14.8591 20.2822 14.8591 19.6562C14.8587 19.2401 14.7764 18.8281 14.6168 18.4438C14.4572 18.0594 14.2235 17.7103 13.929 17.4163C13.6345 17.1223 13.285 16.8891 12.9004 16.7302C12.5158 16.5713 12.1036 16.4896 11.6875 16.49ZM11.6875 21.76C11.2716 21.7589 10.8654 21.6347 10.5202 21.4029C10.1749 21.1711 9.90608 20.8421 9.74767 20.4576C9.58926 20.0731 9.54835 19.6503 9.63012 19.2426C9.7119 18.8348 9.91268 18.4605 10.2071 18.1668C10.5015 17.8731 10.8764 17.6733 11.2843 17.5925C11.6923 17.5118 12.115 17.5538 12.4991 17.7131C12.8832 17.8725 13.2114 18.1422 13.4424 18.488C13.6733 18.8339 13.7966 19.2404 13.7966 19.6562C13.7962 19.9329 13.7414 20.2067 13.6352 20.4621C13.529 20.7176 13.3736 20.9496 13.1777 21.1449C12.9819 21.3403 12.7495 21.4951 12.4938 21.6007C12.2381 21.7062 11.9641 21.7603 11.6875 21.76Z" fill="white"/>
<path d="M19.125 16.7584C18.8308 16.0072 18.4242 15.305 17.9191 14.6759C17.8568 14.5982 17.774 14.5396 17.6801 14.5068C17.5862 14.4739 17.4849 14.4681 17.3878 14.4899L15.7941 14.8459C15.2074 14.3513 14.5361 13.967 13.8125 13.7116L13.3184 12.1445C13.2883 12.0499 13.2322 11.9657 13.1566 11.9014C13.081 11.8371 12.9889 11.7952 12.8908 11.7806C12.0983 11.662 11.2926 11.662 10.5002 11.7806C10.4017 11.7954 10.3094 11.8377 10.2338 11.9025C10.1581 11.9673 10.1023 12.0521 10.0725 12.1471L9.56251 13.7116C8.84647 13.9694 8.1825 14.3535 7.6022 14.8459L6.00845 14.4899C5.91137 14.4681 5.8101 14.4739 5.71617 14.5068C5.62225 14.5396 5.53945 14.5982 5.4772 14.6759C4.97188 15.3048 4.56524 16.007 4.27126 16.7584C4.23513 16.8509 4.22568 16.9518 4.24399 17.0494C4.26231 17.1471 4.30764 17.2377 4.37485 17.3109L5.48516 18.5248C5.34828 19.2729 5.34828 20.0397 5.48516 20.7879L4.37485 22.0018C4.30764 22.075 4.26231 22.1656 4.24399 22.2632C4.22568 22.3609 4.23513 22.4617 4.27126 22.5543C4.56524 23.3056 4.97188 24.0078 5.4772 24.6368C5.53945 24.7144 5.62225 24.773 5.71617 24.8059C5.8101 24.8388 5.91137 24.8446 6.00845 24.8227L7.6022 24.4668C8.1825 24.9591 8.84647 25.3433 9.56251 25.601L10.0566 27.1682C10.0863 27.2633 10.1422 27.348 10.2178 27.4128C10.2934 27.4776 10.3858 27.5199 10.4842 27.5348C11.2767 27.6538 12.0824 27.6538 12.8749 27.5348C12.973 27.5201 13.0651 27.4783 13.1407 27.4139C13.2163 27.3496 13.2723 27.2654 13.3025 27.1709L13.8125 25.601C14.5286 25.3433 15.1925 24.9592 15.7728 24.4668L17.3666 24.8227C17.4636 24.8446 17.5649 24.8388 17.6588 24.8059C17.7528 24.773 17.8356 24.7144 17.8978 24.6368C18.4104 24.0091 18.8242 23.3068 19.125 22.5543C19.1611 22.4617 19.1706 22.3609 19.1523 22.2632C19.134 22.1656 19.0886 22.075 19.0214 22.0018L17.9031 20.7879C18.0404 20.0398 18.0404 19.2729 17.9031 18.5248L19.0134 17.3109C19.082 17.2385 19.1288 17.1483 19.1485 17.0506C19.1683 16.9529 19.1601 16.8516 19.125 16.7584ZM16.9442 18.0068C16.8867 18.0701 16.8452 18.1464 16.8235 18.2292C16.8018 18.312 16.8004 18.3988 16.8194 18.4823C16.9972 19.254 16.9972 20.056 16.8194 20.8277C16.8004 20.9112 16.8018 20.998 16.8235 21.0808C16.8452 21.1636 16.8867 21.2399 16.9442 21.3032L18.0067 22.4666C17.8106 22.9049 17.5694 23.3215 17.2869 23.7098L15.7409 23.3751C15.6571 23.3567 15.57 23.359 15.4872 23.3817C15.4044 23.4043 15.3283 23.4467 15.2655 23.5052C14.6857 24.0439 13.9921 24.4452 13.2361 24.6793C13.1538 24.7046 13.079 24.7494 13.0179 24.8101C12.9568 24.8707 12.9114 24.9452 12.8855 25.0273L12.41 26.5281C11.9323 26.5774 11.4507 26.5774 10.973 26.5281L10.4975 25.0273C10.4716 24.9452 10.4262 24.8707 10.3651 24.8101C10.304 24.7494 10.2291 24.7046 10.1469 24.6793C9.391 24.445 8.69744 24.0437 8.11751 23.5052C8.05495 23.4472 7.97932 23.405 7.89702 23.3823C7.81472 23.3597 7.72817 23.3572 7.6447 23.3751L6.10938 23.7124C5.82665 23.3243 5.58538 22.9077 5.38954 22.4693L6.45204 21.3059C6.50961 21.2425 6.55103 21.1662 6.57277 21.0834C6.5945 21.0007 6.59592 20.9138 6.57688 20.8304C6.39941 20.0586 6.39941 19.2567 6.57688 18.4849C6.59592 18.4015 6.5945 18.3147 6.57277 18.2319C6.55103 18.1491 6.50961 18.0728 6.45204 18.0095L5.38954 16.846C5.58522 16.4067 5.82649 15.9892 6.10938 15.6002L7.6447 15.9376C7.72857 15.9559 7.81563 15.9537 7.89844 15.931C7.98125 15.9083 8.05733 15.8659 8.12016 15.8074C8.7001 15.2689 9.39365 14.8677 10.1495 14.6334C10.2318 14.6081 10.3067 14.5632 10.3678 14.5026C10.4288 14.442 10.4743 14.3675 10.5002 14.2854L10.9756 12.7846C11.4534 12.7353 11.9349 12.7353 12.4127 12.7846L12.8881 14.2854C12.914 14.3675 12.9595 14.442 13.0205 14.5026C13.0816 14.5632 13.1565 14.6081 13.2388 14.6334C13.9948 14.8675 14.6884 15.2687 15.2681 15.8074C15.331 15.8659 15.4071 15.9083 15.4899 15.931C15.5727 15.9537 15.6597 15.9559 15.7436 15.9376L17.2816 15.5976C17.5641 15.9858 17.8053 16.4024 18.0014 16.8407L16.9442 18.0068ZM23.2555 17.7412C23.1798 17.671 23.0853 17.6244 22.9835 17.607C22.8818 17.5896 22.7772 17.6023 22.6825 17.6435C22.5878 17.6846 22.5072 17.7524 22.4504 17.8386C22.3937 17.9249 22.3633 18.0258 22.363 18.129V32.579C22.3631 32.6671 22.3852 32.7539 22.4272 32.8313C22.4692 32.9088 22.5298 32.9747 22.6036 33.0229C22.6774 33.0711 22.762 33.1002 22.8498 33.1076C22.9377 33.1149 23.0259 33.1003 23.1067 33.0651L25.9728 31.8166L26.7697 33.676C26.8277 33.8034 26.9336 33.9027 27.0644 33.9525C27.1952 34.0022 27.3403 33.9983 27.4683 33.9416L31.3438 32.2709C31.4711 32.2129 31.5705 32.107 31.6202 31.9762C31.6699 31.8454 31.666 31.7002 31.6094 31.5723L30.8125 29.7129L33.6786 28.4645C33.7595 28.4292 33.8303 28.3743 33.8847 28.3048C33.939 28.2353 33.9752 28.1534 33.99 28.0664C34.0047 27.9794 33.9976 27.8901 33.9692 27.8066C33.9408 27.723 33.8921 27.6479 33.8274 27.5879L23.2555 17.7412ZM29.8961 28.9479C29.7687 29.0059 29.6694 29.1118 29.6197 29.2426C29.5699 29.3734 29.5738 29.5185 29.6305 29.6465L30.4274 31.5059L27.5267 32.7676L26.7299 30.9082C26.6719 30.7808 26.566 30.6815 26.4352 30.6318C26.3044 30.582 26.1592 30.5859 26.0313 30.6426L23.4202 31.7795V19.3615L32.5099 27.8243L29.8961 28.9479Z" fill="white"/>
<path d="M20.7188 30.8125C20.8596 30.8125 20.9948 30.7565 21.0944 30.6569C21.194 30.5573 21.25 30.4221 21.25 30.2812C21.25 30.1404 21.194 30.0052 21.0944 29.9056C20.9948 29.806 20.8596 29.75 20.7188 29.75H3.20875C2.63953 29.75 2.09362 29.5239 1.69112 29.1214C1.28862 28.7189 1.0625 28.173 1.0625 27.6038V9.5625H29.75V22.0469C29.75 22.1878 29.806 22.3229 29.9056 22.4225C30.0052 22.5222 30.1404 22.5781 30.2812 22.5781C30.4221 22.5781 30.5573 22.5222 30.6569 22.4225C30.7565 22.3229 30.8125 22.1878 30.8125 22.0469V3.20875C30.8118 2.35795 30.4735 1.5422 29.8719 0.940598C29.2703 0.338993 28.4545 0.00070343 27.6038 0L3.20875 0C2.35795 0.00070343 1.5422 0.338993 0.940598 0.940598C0.338993 1.5422 0.00070343 2.35795 0 3.20875L0 27.6064C0.00140639 28.4567 0.340006 29.2718 0.941535 29.8728C1.54306 30.4739 2.35841 30.8118 3.20875 30.8125H20.7188ZM3.20875 1.0625H27.6064C28.1752 1.0632 28.7204 1.28964 29.1223 1.69206C29.5242 2.09448 29.75 2.63999 29.75 3.20875V8.5H1.0625V3.20875C1.0625 2.63953 1.28862 2.09362 1.69112 1.69112C2.09362 1.28862 2.63953 1.0625 3.20875 1.0625Z" fill="white"/>
<path d="M26.0312 6.375C26.3465 6.375 26.6546 6.28153 26.9167 6.10641C27.1788 5.93128 27.3831 5.68237 27.5037 5.39115C27.6243 5.09993 27.6559 4.77948 27.5944 4.47033C27.5329 4.16117 27.3811 3.87719 27.1582 3.6543C26.9353 3.43141 26.6513 3.27962 26.3422 3.21812C26.033 3.15663 25.7126 3.18819 25.4213 3.30882C25.1301 3.42944 24.8812 3.63372 24.7061 3.89581C24.531 4.1579 24.4375 4.46604 24.4375 4.78125C24.4375 5.20394 24.6054 5.60932 24.9043 5.9082C25.2032 6.20709 25.6086 6.375 26.0312 6.375ZM26.0312 4.25C26.1363 4.25 26.239 4.28116 26.3264 4.33953C26.4138 4.39791 26.4819 4.48088 26.5221 4.57795C26.5623 4.67502 26.5728 4.78184 26.5523 4.88489C26.5318 4.98794 26.4812 5.0826 26.4069 5.1569C26.3326 5.2312 26.2379 5.28179 26.1349 5.30229C26.0318 5.32279 25.925 5.31227 25.8279 5.27206C25.7309 5.23185 25.6479 5.16376 25.5895 5.0764C25.5312 4.98903 25.5 4.88632 25.5 4.78125C25.5 4.64035 25.556 4.50523 25.6556 4.4056C25.7552 4.30597 25.8904 4.25 26.0312 4.25ZM21.7812 6.375C22.0965 6.375 22.4046 6.28153 22.6667 6.10641C22.9288 5.93128 23.1331 5.68237 23.2537 5.39115C23.3743 5.09993 23.4059 4.77948 23.3444 4.47033C23.2829 4.16117 23.1311 3.87719 22.9082 3.6543C22.6853 3.43141 22.4013 3.27962 22.0922 3.21812C21.783 3.15663 21.4626 3.18819 21.1713 3.30882C20.8801 3.42944 20.6312 3.63372 20.4561 3.89581C20.281 4.1579 20.1875 4.46604 20.1875 4.78125C20.1875 5.20394 20.3554 5.60932 20.6543 5.9082C20.9532 6.20709 21.3586 6.375 21.7812 6.375ZM21.7812 4.25C21.8863 4.25 21.989 4.28116 22.0764 4.33953C22.1638 4.39791 22.2319 4.48088 22.2721 4.57795C22.3123 4.67502 22.3228 4.78184 22.3023 4.88489C22.2818 4.98794 22.2312 5.0826 22.1569 5.1569C22.0826 5.2312 21.9879 5.28179 21.8849 5.30229C21.7818 5.32279 21.675 5.31227 21.5779 5.27206C21.4809 5.23185 21.3979 5.16376 21.3395 5.0764C21.2812 4.98903 21.25 4.88632 21.25 4.78125C21.25 4.64035 21.306 4.50523 21.4056 4.4056C21.5052 4.30597 21.6404 4.25 21.7812 4.25ZM17.5312 6.375C17.8465 6.375 18.1546 6.28153 18.4167 6.10641C18.6788 5.93128 18.8831 5.68237 19.0037 5.39115C19.1243 5.09993 19.1559 4.77948 19.0944 4.47033C19.0329 4.16117 18.8811 3.87719 18.6582 3.6543C18.4353 3.43141 18.1513 3.27962 17.8422 3.21812C17.533 3.15663 17.2126 3.18819 16.9213 3.30882C16.6301 3.42944 16.3812 3.63372 16.2061 3.89581C16.031 4.1579 15.9375 4.46604 15.9375 4.78125C15.9375 5.20394 16.1054 5.60932 16.4043 5.9082C16.7032 6.20709 17.1086 6.375 17.5312 6.375ZM17.5312 4.25C17.6363 4.25 17.739 4.28116 17.8264 4.33953C17.9138 4.39791 17.9819 4.48088 18.0221 4.57795C18.0623 4.67502 18.0728 4.78184 18.0523 4.88489C18.0318 4.98794 17.9812 5.0826 17.9069 5.1569C17.8326 5.2312 17.7379 5.28179 17.6349 5.30229C17.5318 5.32279 17.425 5.31227 17.3279 5.27206C17.2309 5.23185 17.1479 5.16376 17.0895 5.0764C17.0312 4.98903 17 4.88632 17 4.78125C17 4.64035 17.056 4.50523 17.1556 4.4056C17.2552 4.30597 17.3904 4.25 17.5312 4.25Z" fill="white"/>
</g>
<defs>
<clipPath id="clip0_47_1850">
<rect width="34" height="34" fill="white"/>
</clipPath>
</defs>
</svg>
