<svg width="42" height="42" viewBox="0 0 42 42" fill="none" xmlns="http://www.w3.org/2000/svg">
<path d="M21.712 30.1875H9.78797C8.93279 30.1884 8.11288 30.5285 7.50818 31.1332C6.90347 31.7379 6.56337 32.5578 6.5625 33.413V36.0938C6.5625 36.2678 6.63164 36.4347 6.75471 36.5578C6.87778 36.6809 7.0447 36.75 7.21875 36.75H24.2812C24.4553 36.75 24.6222 36.6809 24.7453 36.5578C24.8684 36.4347 24.9375 36.2678 24.9375 36.0938V33.413C24.9366 32.5578 24.5965 31.7379 23.9918 31.1332C23.3871 30.5285 22.5672 30.1884 21.712 30.1875ZM23.625 35.4375H7.875V33.413C7.87587 32.9059 8.07769 32.4198 8.43625 32.0613C8.79482 31.7027 9.28088 31.5009 9.78797 31.5H21.712C22.2191 31.5009 22.7052 31.7027 23.0637 32.0613C23.4223 32.4198 23.6241 32.9059 23.625 33.413V35.4375Z" fill="white"/>
<path d="M36.9994 29.6888L24.0778 18.1618C24.7217 17.3331 25.2998 16.4555 25.807 15.5368C26.3783 15.8171 27.0305 15.8858 27.6476 15.7308C28.2648 15.5757 28.8071 15.207 29.1781 14.69C29.5491 14.173 29.7249 13.5412 29.6742 12.9069C29.6235 12.2726 29.3496 11.6767 28.9012 11.2252L22.4339 4.771C21.9831 4.31553 21.3845 4.03593 20.7459 3.98251C20.1073 3.92909 19.4705 4.10537 18.9503 4.47961C18.4301 4.85385 18.0605 5.40148 17.9082 6.02395C17.7558 6.64641 17.8305 7.30283 18.119 7.87506C16.309 8.89631 14.6521 10.1677 13.1972 11.6518C11.7497 13.0801 10.5104 14.7049 9.51561 16.4785C8.94396 16.198 8.29136 16.1294 7.67387 16.2848C7.05638 16.4402 6.51401 16.8096 6.14321 17.3272C5.7724 17.8448 5.59719 18.4772 5.64872 19.1119C5.70026 19.7465 5.97521 20.3423 6.42467 20.7933L12.8789 27.2607C13.3304 27.7091 13.9262 27.983 14.5606 28.0337C15.1949 28.0844 15.8267 27.9086 16.3437 27.5376C16.8607 27.1665 17.2294 26.6243 17.3844 26.0071C17.5395 25.3899 17.4707 24.7378 17.1905 24.1665C18.1101 23.6609 18.9879 23.0827 19.8155 22.4373L31.3392 35.3588C31.7022 35.7683 32.1456 36.0988 32.6418 36.3297C33.138 36.5606 33.6763 36.6869 34.2234 36.7008H34.3415C35.1553 36.7001 35.9497 36.4522 36.6194 35.9899C37.2892 35.5276 37.8026 34.8727 38.0919 34.1121C38.3811 33.3514 38.4325 32.5209 38.2391 31.7304C38.0458 30.9399 37.6169 30.2268 37.0092 29.6855L36.9994 29.6888ZM19.5562 5.69959C19.6842 5.57161 19.8361 5.47008 20.0033 5.40082C20.1706 5.33155 20.3498 5.2959 20.5308 5.2959C20.7118 5.2959 20.891 5.33155 21.0582 5.40082C21.2254 5.47008 21.3773 5.57161 21.5053 5.69959L27.9726 12.1669C28.1031 12.2941 28.2069 12.4458 28.2782 12.6134C28.3495 12.781 28.3867 12.9611 28.3878 13.1432C28.3889 13.3254 28.3538 13.5059 28.2846 13.6743C28.2153 13.8428 28.1132 13.9958 27.9844 14.1245C27.8555 14.2531 27.7023 14.3549 27.5337 14.4239C27.3652 14.4929 27.1846 14.5277 27.0025 14.5263C26.8203 14.5249 26.6403 14.4873 26.4728 14.4158C26.3054 14.3442 26.1538 14.2401 26.0269 14.1094L19.5562 7.64538C19.2996 7.38664 19.1555 7.03694 19.1555 6.67248C19.1555 6.30803 19.2996 5.95833 19.5562 5.69959ZM15.75 26.3321C15.6223 26.46 15.4706 26.5614 15.3037 26.6307C15.1368 26.6999 14.9578 26.7355 14.7771 26.7355C14.5964 26.7355 14.4174 26.6999 14.2505 26.6307C14.0835 26.5614 13.9319 26.46 13.8042 26.3321L7.34014 19.8648C7.21216 19.7368 7.11063 19.5848 7.04136 19.4176C6.9721 19.2504 6.93645 19.0712 6.93645 18.8902C6.93645 18.7092 6.9721 18.53 7.04136 18.3628C7.11063 18.1956 7.21216 18.0437 7.34014 17.9157C7.59888 17.659 7.94857 17.515 8.31303 17.515C8.67749 17.515 9.02718 17.659 9.28592 17.9157L15.75 24.3863C15.8779 24.514 15.9793 24.6657 16.0485 24.8326C16.1178 24.9995 16.1534 25.1785 16.1534 25.3592C16.1534 25.5399 16.1178 25.7189 16.0485 25.8858C15.9793 26.0527 15.8779 26.2044 15.75 26.3321ZM36.2348 34.5976C35.9745 34.8591 35.6634 35.0646 35.3207 35.2014C34.9779 35.3381 34.6108 35.4033 34.242 35.3928C33.8731 35.3824 33.5103 35.2965 33.1758 35.1406C32.8414 34.9846 32.5424 34.7619 32.2973 34.486L20.37 21.1018C20.3086 21.0328 20.2333 20.9775 20.149 20.9397C20.0648 20.9018 19.9735 20.8821 19.8811 20.8819C19.7293 20.8815 19.582 20.9337 19.4644 21.0296C18.501 21.8333 17.4575 22.5359 16.3505 23.1263L10.5459 17.3185C11.4944 15.5643 12.7012 13.9627 14.1258 12.5673C15.5475 11.1136 17.1775 9.87944 18.9623 8.90538L24.7669 14.7099C24.1743 15.8164 23.4706 16.8597 22.6669 17.8238C22.5597 17.9549 22.5075 18.1224 22.5209 18.2911C22.5344 18.4599 22.6125 18.6169 22.739 18.7294L36.1265 30.6699C36.4024 30.915 36.6252 31.214 36.7811 31.5484C36.9371 31.8829 37.0229 32.2457 37.0334 32.6145C37.0438 32.9834 36.9787 33.3505 36.8419 33.6932C36.7051 34.036 36.4996 34.3471 36.2381 34.6074L36.2348 34.5976Z" fill="white"/>
</svg>
