<svg width="36" height="36" viewBox="0 0 36 36" fill="none" xmlns="http://www.w3.org/2000/svg">
<g clip-path="url(#clip0_47_1837)">
<path d="M26.5781 34.4531H9.42187C9.32276 34.4535 9.22529 34.4277 9.13936 34.3783C9.05342 34.3289 8.98206 34.2577 8.9325 34.1719C8.88313 34.0864 8.85714 33.9894 8.85714 33.8906C8.85714 33.7919 8.88313 33.6949 8.9325 33.6094L17.5134 18.7509C17.5629 18.6657 17.6339 18.5949 17.7192 18.5458C17.8046 18.4966 17.9015 18.4707 18 18.4707C18.0985 18.4707 18.1954 18.4966 18.2808 18.5458C18.3661 18.5949 18.4371 18.6657 18.4866 18.7509L27.0675 33.6094C27.1169 33.6949 27.1429 33.7919 27.1429 33.8906C27.1429 33.9894 27.1169 34.0864 27.0675 34.1719C27.0179 34.2577 26.9466 34.3289 26.8606 34.3783C26.7747 34.4277 26.6772 34.4535 26.5781 34.4531ZM10.4062 33.3281H25.5938L18 20.1572L10.4062 33.3281ZM35.4375 26.1563C35.3537 26.1558 35.2711 26.1365 35.1956 26.1L0.320624 9.50625C0.25213 9.47564 0.190451 9.43164 0.139218 9.37684C0.0879845 9.32203 0.0482316 9.25753 0.022299 9.18714C-0.00363358 9.11674 -0.0152219 9.04187 -0.0117839 8.96692C-0.00834587 8.89198 0.010049 8.81848 0.0423181 8.75075C0.0745872 8.68303 0.120078 8.62244 0.176114 8.57255C0.23215 8.52267 0.297599 8.4845 0.368607 8.46029C0.439616 8.43608 0.51475 8.42632 0.589587 8.43159C0.664424 8.43685 0.737453 8.45703 0.804374 8.49094L35.6794 25.0847C35.7472 25.1151 35.8083 25.1586 35.8592 25.2127C35.9102 25.2669 35.9498 25.3306 35.976 25.4001C36.0021 25.4697 36.0142 25.5437 36.0116 25.618C36.009 25.6923 35.9916 25.7653 35.9606 25.8328C35.9142 25.9317 35.8401 26.0149 35.7472 26.0724C35.6543 26.1298 35.5467 26.1589 35.4375 26.1563ZM3.375 8.29688C2.70749 8.29688 2.05497 8.09894 1.49995 7.72809C0.944933 7.35724 0.512351 6.83013 0.256905 6.21343C0.00145969 5.59673 -0.0653766 4.91813 0.0648485 4.26345C0.195074 3.60876 0.516511 3.00739 0.988513 2.53539C1.46052 2.06339 2.06188 1.74195 2.71657 1.61173C3.37126 1.4815 4.04985 1.54834 4.66656 1.80378C5.28326 2.05923 5.81036 2.49181 6.18121 3.04683C6.55206 3.60184 6.75 4.25436 6.75 4.92188C6.75 5.81698 6.39442 6.67543 5.76148 7.30836C5.12855 7.9413 4.2701 8.29688 3.375 8.29688ZM3.375 2.67188C2.92999 2.67188 2.49498 2.80384 2.12497 3.05107C1.75496 3.2983 1.46657 3.64971 1.29627 4.06084C1.12597 4.47197 1.08142 4.92437 1.16823 5.36083C1.25505 5.79729 1.46934 6.1982 1.78401 6.51287C2.09868 6.82754 2.49959 7.04183 2.93605 7.12864C3.3725 7.21546 3.8249 7.1709 4.23604 7.00061C4.64717 6.83031 4.99857 6.54192 5.24581 6.17191C5.49304 5.8019 5.625 5.36688 5.625 4.92188C5.625 4.32514 5.38795 3.75284 4.96599 3.33089C4.54403 2.90893 3.97174 2.67188 3.375 2.67188ZM29.8519 20.5313C28.6353 20.5312 27.4461 20.1703 26.4347 19.4941C25.4233 18.8179 24.6353 17.8569 24.1704 16.7327C23.7055 15.6084 23.5846 14.3715 23.8229 13.1785C24.0613 11.9855 24.6483 10.89 25.5095 10.0308C26.3707 9.1715 27.4675 8.58706 28.6611 8.35143C29.8546 8.11579 31.0912 8.23955 32.2144 8.70705C33.3376 9.17454 34.2968 9.96475 34.9707 10.9777C35.6446 11.9906 36.0028 13.1806 36 14.3972C35.9955 16.0251 35.3459 17.5849 34.1935 18.7347C33.041 19.8845 31.4798 20.5305 29.8519 20.5313ZM29.8519 9.36281C28.8589 9.36282 27.8882 9.65714 27.0623 10.2086C26.2365 10.76 25.5927 11.5439 25.2122 12.4611C24.8317 13.3783 24.7316 14.3877 24.9245 15.3618C25.1174 16.3359 25.5947 17.2309 26.296 17.9338C26.9974 18.6368 27.8914 19.1161 28.865 19.3112C29.8387 19.5063 30.8483 19.4084 31.7664 19.0299C32.6844 18.6515 33.4697 18.0094 34.023 17.1848C34.5763 16.3602 34.8728 15.3902 34.875 14.3972C34.8735 13.0654 34.3438 11.7886 33.4021 10.8469C32.4604 9.90525 31.1836 9.37555 29.8519 9.37406V9.36281Z" fill="white"/>
</g>
<defs>
<clipPath id="clip0_47_1837">
<rect width="36" height="36" fill="white"/>
</clipPath>
</defs>
</svg>
