<svg width="43" height="43" viewBox="0 0 43 43" fill="none" xmlns="http://www.w3.org/2000/svg">
<path d="M35.6094 26.875H29.5625V9.40625C29.5625 8.3371 29.1378 7.31173 28.3818 6.55573C27.6258 5.79972 26.6004 5.375 25.5312 5.375H8.0625C6.99335 5.375 5.96798 5.79972 5.21198 6.55573C4.45597 7.31173 4.03125 8.3371 4.03125 9.40625V11.4219C4.03125 11.6001 4.10204 11.771 4.22804 11.897C4.35404 12.023 4.52493 12.0938 4.70312 12.0938H10.75V31.5781C10.75 33.1819 11.3871 34.7199 12.5211 35.8539C13.6551 36.9879 15.1931 37.625 16.7969 37.625H34.2656C35.8694 37.625 37.4074 36.9879 38.5414 35.8539C39.6754 34.7199 40.3125 33.1819 40.3125 31.5781C40.3125 30.3308 39.817 29.1345 38.935 28.2525C38.053 27.3705 36.8567 26.875 35.6094 26.875ZM5.375 9.40625C5.375 8.69348 5.65815 8.0099 6.16215 7.5059C6.66615 7.0019 7.34973 6.71875 8.0625 6.71875C8.77527 6.71875 9.45885 7.0019 9.96285 7.5059C10.4669 8.0099 10.75 8.69348 10.75 9.40625V10.75H5.375V9.40625ZM12.0938 31.5781V9.40625C12.0915 8.41358 11.7231 7.45663 11.0591 6.71875H25.5312C26.244 6.71875 26.9276 7.0019 27.4316 7.5059C27.9356 8.0099 28.2188 8.69348 28.2188 9.40625V26.875H18.1406C17.2497 26.875 16.3952 27.2289 15.7652 27.8589C15.1352 28.4889 14.7812 29.3434 14.7812 30.2344V31.5781C14.7812 31.7563 14.852 31.9272 14.978 32.0532C15.104 32.1792 15.2749 32.25 15.4531 32.25H21.453C21.285 33.4286 20.6764 34.4997 19.7498 35.2472C18.8232 35.9946 17.6476 36.3629 16.4601 36.2776C15.2726 36.1924 14.1617 35.66 13.3514 34.7878C12.541 33.9157 12.0916 32.7686 12.0938 31.5781ZM21.4328 30.9062H16.125V30.2344C16.125 29.6998 16.3374 29.1871 16.7154 28.8091C17.0934 28.4311 17.606 28.2188 18.1406 28.2188C18.9151 28.2186 19.6658 28.486 20.2657 28.9757C20.8656 29.4655 21.2779 30.1475 21.4328 30.9062ZM34.2656 36.2812H20.5896C21.2925 35.7152 21.8597 34.999 22.2498 34.1852C22.6398 33.3714 22.8428 32.4806 22.8438 31.5781C22.8441 30.9518 22.7188 30.3318 22.4753 29.7548C22.2318 29.1778 21.875 28.6555 21.4261 28.2188H35.6094C36.5003 28.2188 37.3548 28.5727 37.9848 29.2027C38.6148 29.8327 38.9688 30.6872 38.9688 31.5781C38.9688 32.8255 38.4732 34.0217 37.5912 34.9037C36.7092 35.7857 35.513 36.2812 34.2656 36.2812Z" fill="white"/>
</svg>
