<svg width="44" height="44" viewBox="0 0 44 44" fill="none" xmlns="http://www.w3.org/2000/svg">
<path d="M35.0866 18.0332C35.5678 17.2185 37.0184 14.3894 35.2034 12.5778C34.0725 11.4435 32.4156 10.0719 32.1097 9.82785C32.3972 8.23263 32.4757 6.60678 32.3434 4.99128C32.3247 4.82235 32.2441 4.66633 32.1172 4.55333C31.9902 4.44034 31.8259 4.37838 31.6559 4.37941H19.5937C19.4166 4.37923 19.2463 4.4474 19.1182 4.56971C18.9902 4.69203 18.9142 4.85905 18.9062 5.03597C18.9062 5.10128 18.8856 5.61347 18.9062 6.41097C17.5828 6.87503 14.0112 8.06441 12.375 8.61441L11.77 8.81722C10.2523 9.2917 8.70263 9.65701 7.13281 9.91034C7.03888 9.92777 6.94908 9.96276 6.86812 10.0135C6.78562 10.065 4.86406 11.3403 4.74718 15.4207C4.74548 15.4447 4.74548 15.4688 4.74718 15.4928C5.15625 20.9688 8.25 22.4194 8.39093 22.4778C8.47946 22.5182 8.57553 22.5393 8.67281 22.5397C8.77238 22.5393 8.87067 22.5173 8.96089 22.4751C9.0511 22.433 9.13109 22.3717 9.19531 22.2957C9.63531 21.7732 11.4228 21.1166 11.8387 21.0857L12.1825 21.2025C12.816 21.4487 13.4776 21.615 14.1522 21.6975C12.908 24.8105 12.2788 28.1352 12.2994 31.4875C12.2994 36.9532 17.2803 40.2188 25.6266 40.2188C33.9728 40.2188 38.9537 36.9532 38.9537 31.4875C38.9537 26.3794 37.5031 21.5669 35.0866 18.0332ZM34.2341 13.5472C35.1209 14.4375 34.5984 15.9535 34.1756 16.8163C33.2283 15.6446 32.0949 14.6366 30.8206 13.8325C31.217 13.0358 31.5348 12.2022 31.7694 11.3438C32.4156 11.8732 33.4641 12.7807 34.2341 13.5472ZM11.9316 19.7141C11.3437 19.6935 9.58375 20.2813 8.59375 20.9997C7.88906 20.4841 6.38687 18.9819 6.10844 15.4241C6.1875 12.65 7.21875 11.5191 7.51437 11.2407C9.09983 10.9798 10.6645 10.6052 12.1962 10.12L12.8012 9.92066C15.2934 9.08534 17.6928 8.28097 18.9887 7.83066C19.1094 9.71451 19.4781 11.5742 20.0853 13.3616C20.0139 13.3369 19.9439 13.3082 19.8756 13.2757C18.7928 12.7463 17.6344 12.3132 17.5862 12.296C17.5016 12.2644 17.4116 12.2498 17.3213 12.2529C17.231 12.2561 17.1422 12.2771 17.06 12.3146C16.9778 12.3521 16.9038 12.4054 16.8422 12.4715C16.7807 12.5376 16.7327 12.6152 16.7011 12.6999C16.6695 12.7845 16.6549 12.8746 16.6581 12.9648C16.6613 13.0551 16.6822 13.1439 16.7197 13.2261C16.7572 13.3083 16.8106 13.3823 16.8767 13.4439C16.9428 13.5055 17.0204 13.5534 17.105 13.585C17.105 13.585 18.2497 14.0113 19.2706 14.5097C20.1334 14.936 21.4397 15.0082 22.8216 15.0872C24.1037 15.1594 25.4272 15.235 26.2178 15.5925C27.225 16.0463 28.0569 16.8782 28.2803 17.655C28.3355 17.8033 28.3558 17.9622 28.3397 18.1196C28.3236 18.277 28.2715 18.4285 28.1875 18.5625C27.9194 18.9853 27.6925 18.9991 26.1766 18.6794C25.0126 18.4116 23.8282 18.2415 22.6359 18.1707C20.3833 18.0713 18.1564 18.6821 16.2697 19.9169C14.9187 20.7488 13.4819 20.2332 12.6259 19.9169C12.4051 19.8173 12.1713 19.749 11.9316 19.7141ZM25.6266 38.8438C18.1431 38.8438 13.6744 36.0938 13.6744 31.4875C13.6433 28.1685 14.2902 24.8781 15.5753 21.8178C15.6009 21.7562 15.6182 21.6915 15.6269 21.6253C16.1133 21.5204 16.5783 21.3332 17.0019 21.0719C18.6528 19.9855 20.6029 19.4445 22.5775 19.525C23.699 19.5948 24.813 19.7557 25.9084 20.0063C27.3797 20.3191 28.5416 20.5632 29.3459 19.2878C29.5318 18.9905 29.6498 18.6558 29.6914 18.3076C29.733 17.9593 29.6972 17.6062 29.5866 17.2735C29.2428 16.1082 28.1325 14.9566 26.7644 14.3378C25.7331 13.8772 24.2859 13.7947 22.88 13.7157C22.4572 13.6916 22.0344 13.6675 21.6322 13.6297C21.622 13.5791 21.6071 13.5296 21.5875 13.4819C20.4291 10.7113 20.2812 7.18784 20.2812 5.74753H31.0131C31.0681 7.16378 31.0131 10.7766 29.2944 13.7535C29.2515 13.8329 29.2247 13.92 29.2155 14.0099C29.2062 14.0997 29.2148 14.1904 29.2407 14.2769C29.2665 14.3634 29.3092 14.444 29.3661 14.514C29.4231 14.584 29.4934 14.6421 29.5728 14.685C34.375 17.2803 37.5787 24.0282 37.5787 31.4875C37.5787 36.0938 33.11 38.8438 25.6266 38.8438Z" fill="white"/>
<path d="M25.6644 28.0809C24.3272 27.5859 23.7428 27.2937 23.7669 26.5787C23.7732 26.3566 23.8407 26.1405 23.962 25.9543C24.0833 25.7681 24.2537 25.619 24.4544 25.5234C24.8825 25.3308 25.3526 25.2502 25.8205 25.2893C26.2883 25.3283 26.7385 25.4858 27.1287 25.7469C27.2828 25.8241 27.4602 25.8406 27.6259 25.7933C27.7915 25.7459 27.9334 25.638 28.0233 25.491C28.1132 25.3441 28.1447 25.1687 28.1114 24.9996C28.0782 24.8305 27.9826 24.6801 27.8437 24.5781C27.3201 24.2533 26.7349 24.0403 26.125 23.9525V22.6875C26.125 22.5052 26.0526 22.3303 25.9236 22.2014C25.7947 22.0724 25.6198 22 25.4375 22C25.2552 22 25.0803 22.0724 24.9514 22.2014C24.8224 22.3303 24.75 22.5052 24.75 22.6875V23.9766C24.4199 24.0448 24.1015 24.1606 23.8047 24.3203C23.3912 24.5291 23.0417 24.8456 22.7931 25.2365C22.5444 25.6273 22.4058 26.0779 22.3919 26.5409C22.3369 28.3216 23.9147 28.9059 25.1866 29.3769C26.6062 29.9062 27.2216 30.2259 27.1356 31.0956C27.1199 31.3645 27.0254 31.6229 26.8641 31.8386C26.7028 32.0544 26.4816 32.2179 26.2281 32.3091C25.3172 32.6975 24.0178 32.505 23.4781 32.0684C23.3345 31.9554 23.1519 31.904 22.9704 31.9256C22.789 31.9472 22.6235 32.04 22.5105 32.1836C22.3974 32.3272 22.346 32.5098 22.3676 32.6913C22.3892 32.8727 22.482 33.0382 22.6256 33.1513C23.2518 33.5845 23.9891 33.8291 24.75 33.8559V35.0625C24.75 35.2448 24.8224 35.4197 24.9514 35.5486C25.0803 35.6776 25.2552 35.75 25.4375 35.75C25.6198 35.75 25.7947 35.6776 25.9236 35.5486C26.0526 35.4197 26.125 35.2448 26.125 35.0625V33.7528C26.3448 33.7056 26.5599 33.6389 26.7678 33.5534C27.2486 33.3653 27.6666 33.0457 27.9742 32.6311C28.2818 32.2165 28.4665 31.7237 28.5072 31.2091C28.6997 29.2188 26.9466 28.5588 25.6644 28.0809Z" fill="white"/>
</svg>
